<svg fill="currentColor" xmlns="http://www.w3.org/2000/svg" viewBox="0 0 16 18">
  <path d="M4.6667 10.6666c-.2361 0-.4342-.08-.5942-.24-.16-.16-.2397-.3578-.2392-.5933 0-.2361.08-.4342.24-.5942.16-.16.3578-.2397.5934-.2391.236 0 .4341.08.5941.24.16.16.2398.3577.2392.5933 0 .2361-.08.4342-.24.5942-.16.16-.3578.2397-.5933.2391Zm3.3333 0c-.2361 0-.4342-.08-.5942-.24-.16-.16-.2397-.3578-.2391-.5933 0-.2361.08-.4342.24-.5942.16-.16.3578-.2397.5933-.2391.2361 0 .4342.08.5942.24.16.16.2397.3577.2391.5933 0 .2361-.08.4342-.24.5942-.16.16-.3577.2397-.5933.2391Zm3.3333 0c-.2361 0-.4341-.08-.5941-.24-.16-.16-.2398-.3578-.2392-.5933 0-.2361.08-.4342.24-.5942.16-.16.3578-.2397.5933-.2391.2361 0 .4342.08.5942.24.16.16.2397.3577.2392.5933 0 .2361-.08.4342-.24.5942-.16.16-.3578.2397-.5934.2391Zm-9.1666 6.6667c-.4584 0-.8509-.1633-1.1775-.49-.3267-.3267-.4898-.7189-.4892-1.1767V4c0-.4584.1633-.8509.49-1.1775.3267-.3267.7189-.4898 1.1767-.4892H3V.6666h1.6667v1.6667h6.6666V.6666H13v1.6667h.8333c.4584 0 .8509.1633 1.1775.49.3267.3267.4898.7189.4892 1.1767v11.6666c0 .4584-.1633.8509-.49 1.1775-.3267.3267-.7189.4897-1.1767.4892H2.1667Zm0-1.6667h11.6666V7.3333H2.1667v8.3333Z" />
</svg>
