<svg fill="currentColor" xmlns="http://www.w3.org/2000/svg" viewBox="0 0 13 14">
  <path d="m6.5 8.3417-4.6958 4.6958c-.1757.1757-.3993.2636-.6708.2636-.2716 0-.4952-.0879-.6709-.2636-.1757-.1757-.2635-.3993-.2635-.6708 0-.2715.0878-.4952.2635-.6708L5.1584 7 .4625 2.3042C.2868 2.1285.199 1.9049.199 1.6334c0-.2716.0878-.4952.2635-.6709C.6382.7868.8618.699 1.1334.699c.2715 0 .495.0878.6708.2635L6.5 5.6584 11.196.9625c.1756-.1757.3993-.2635.6708-.2635.2715 0 .4951.0878.6708.2635.1757.1757.2636.3993.2636.6709 0 .2715-.0879.495-.2636.6708L7.8417 7l4.6958 4.6959c.1757.1756.2636.3993.2636.6708 0 .2715-.0879.4951-.2636.6708-.1757.1757-.3993.2636-.6708.2636-.2715 0-.4952-.0879-.6708-.2636L6.5 8.3417Z" fill="#F2F2F2"/>
</svg>
