<svg fill="currentColor" xmlns="http://www.w3.org/2000/svg" viewBox="0 0 13 14">
  <path d="M8.2021 4.9855H6.8716v5.5218H8.202V4.9855Zm-2.7397 0H4.1318v5.5218h1.3306V4.9855Z"/>
  <path d="M12.478 2.1671a.644.644 0 0 0-.4596-.6048.6203.6203 0 0 0-.1845-.0453H8.2868a2.144 2.144 0 0 0-4.1005 0H.639a.6412.6412 0 0 0-.1724.0272h-.015A.641.641 0 0 0 .5422 2.79l.7107 9.7433A1.512 1.512 0 0 0 2.6833 14h7.1034a1.5118 1.5118 0 0 0 1.4333-1.4666l.7077-9.7343a.6384.6384 0 0 0 .5503-.632Zm-6.2415-.9525a.9375.9375 0 0 1 .6895.3024H5.547a.9316.9316 0 0 1 .6895-.3024Zm3.5502 11.5758H2.6833c-.0816 0-.2086-.1331-.2237-.3447L1.758 2.8112h8.957l-.7015 9.6345c-.0151.2116-.1422.3447-.2268.3447Z"/>
</svg>
